<?xml version="1.0" encoding="UTF-8" standalone="no"?>
<!DOCTYPE svg PUBLIC "-//W3C//DTD SVG 20010904//EN"
              "http://www.w3.org/TR/2001/REC-SVG-20010904/DTD/svg10.dtd">

<svg xmlns="http://www.w3.org/2000/svg"
     width="11.1111in" height="11.1111in"
     viewBox="0 0 800 800">
  <path id="Selection"
        fill="none" stroke="black" stroke-width="1"
        d="M 362.00,162.00
           C 362.00,162.00 426.00,162.00 426.00,162.00
             426.00,162.00 426.00,174.00 426.00,174.00
             426.00,174.00 462.00,174.00 462.00,174.00
             462.00,174.00 462.00,162.00 462.00,162.00
             462.00,162.00 501.00,162.00 501.00,162.00
             501.00,162.00 501.00,188.00 501.00,188.00
             501.00,188.00 488.00,188.00 488.00,188.00
             488.00,188.00 488.00,199.00 488.00,199.00
             488.00,199.00 535.00,199.00 535.00,199.00
             549.86,199.00 550.94,197.80 551.00,207.00
             551.02,210.46 551.90,223.00 549.40,224.98
             547.55,226.44 540.54,226.00 538.00,226.00
             538.00,226.00 538.00,249.00 538.00,249.00
             540.54,249.00 547.55,248.56 549.40,250.02
             551.69,251.83 551.00,259.17 551.00,262.00
             551.00,262.00 563.00,262.00 563.00,262.00
             563.00,262.00 563.00,276.00 563.00,276.00
             563.00,276.00 551.00,276.00 551.00,276.00
             551.00,276.00 551.00,288.00 551.00,288.00
             551.00,288.00 526.00,288.00 526.00,288.00
             526.00,288.00 526.00,299.00 526.00,299.00
             526.00,299.00 538.00,299.00 538.00,299.00
             538.00,299.00 538.00,376.00 538.00,376.00
             538.00,376.00 526.00,376.00 526.00,376.00
             526.00,376.00 526.00,388.00 526.00,388.00
             526.00,388.00 513.00,388.00 513.00,388.00
             513.00,388.00 513.00,399.00 513.00,399.00
             513.00,399.00 538.00,399.00 538.00,399.00
             538.00,399.00 538.00,412.00 538.00,412.00
             538.00,412.00 551.00,412.00 551.00,412.00
             551.00,412.00 551.00,424.00 551.00,424.00
             551.00,424.00 563.00,424.00 563.00,424.00
             563.00,424.00 563.00,449.00 563.00,449.00
             563.00,449.00 574.40,450.02 574.40,450.02
             574.40,450.02 576.00,457.00 576.00,457.00
             576.00,457.00 576.00,487.00 576.00,487.00
             576.00,487.00 588.00,487.00 588.00,487.00
             588.00,487.00 588.00,613.00 588.00,613.00
             588.00,613.00 576.00,613.00 576.00,613.00
             576.00,615.83 576.69,623.17 574.40,624.98
             572.55,626.44 565.54,626.00 563.00,626.00
             563.00,626.00 563.00,638.00 563.00,638.00
             563.00,638.00 526.00,638.00 526.00,638.00
             526.00,638.00 526.00,699.00 526.00,699.00
             526.00,699.00 538.00,699.00 538.00,699.00
             538.00,699.00 538.00,724.00 538.00,724.00
             538.00,724.00 549.40,725.02 549.40,725.02
             549.40,725.02 551.00,731.00 551.00,731.00
             551.00,731.00 551.00,763.00 551.00,763.00
             551.00,763.00 538.00,763.00 538.00,763.00
             538.00,763.00 538.00,776.00 538.00,776.00
             538.00,776.00 462.00,776.00 462.00,776.00
             462.00,776.00 462.00,763.00 462.00,763.00
             462.00,763.00 449.00,763.00 449.00,763.00
             449.00,763.00 449.00,751.00 449.00,751.00
             449.00,751.00 437.00,751.00 437.00,751.00
             437.00,751.00 437.00,699.00 437.00,699.00
             437.00,699.00 449.00,699.00 449.00,699.00
             449.00,699.00 449.00,676.00 449.00,676.00
             449.00,676.00 437.00,676.00 437.00,676.00
             437.00,676.00 437.00,651.00 437.00,651.00
             437.00,651.00 424.00,651.00 424.00,651.00
             424.00,651.00 424.00,638.00 424.00,638.00
             424.00,638.00 376.00,638.00 376.00,638.00
             376.00,638.00 376.00,651.00 376.00,651.00
             376.00,651.00 363.00,651.00 363.00,651.00
             363.00,651.00 363.00,676.00 363.00,676.00
             363.00,676.00 351.00,676.00 351.00,676.00
             351.00,676.00 351.00,699.00 351.00,699.00
             351.00,699.00 363.00,699.00 363.00,699.00
             363.00,699.00 363.00,751.00 363.00,751.00
             363.00,751.00 351.00,751.00 351.00,751.00
             351.00,751.00 351.00,763.00 351.00,763.00
             351.00,763.00 338.00,763.00 338.00,763.00
             338.00,763.00 338.00,776.00 338.00,776.00
             338.00,776.00 262.00,776.00 262.00,776.00
             262.00,776.00 262.00,763.00 262.00,763.00
             262.00,763.00 249.00,763.00 249.00,763.00
             249.00,763.00 249.00,732.00 249.00,732.00
             249.00,732.00 250.60,725.02 250.60,725.02
             250.60,725.02 262.00,724.00 262.00,724.00
             262.00,724.00 262.00,699.00 262.00,699.00
             262.00,699.00 274.00,699.00 274.00,699.00
             274.00,699.00 274.00,638.00 274.00,638.00
             274.00,638.00 237.00,638.00 237.00,638.00
             237.00,638.00 237.00,626.00 237.00,626.00
             234.17,626.00 226.83,626.69 225.02,624.40
             223.56,622.55 224.00,615.54 224.00,613.00
             224.00,613.00 212.00,613.00 212.00,613.00
             212.00,613.00 212.00,487.00 212.00,487.00
             212.00,487.00 224.00,487.00 224.00,487.00
             224.00,487.00 224.00,458.00 224.00,458.00
             224.00,458.00 225.60,450.02 225.60,450.02
             225.60,450.02 237.00,449.00 237.00,449.00
             237.00,449.00 237.00,424.00 237.00,424.00
             237.00,424.00 249.00,424.00 249.00,424.00
             249.00,424.00 249.00,412.00 249.00,412.00
             249.00,412.00 262.00,412.00 262.00,412.00
             262.00,412.00 262.00,399.00 262.00,399.00
             262.00,399.00 287.00,399.00 287.00,399.00
             287.00,399.00 287.00,388.00 287.00,388.00
             287.00,388.00 274.00,388.00 274.00,388.00
             274.00,388.00 274.00,376.00 274.00,376.00
             274.00,376.00 262.00,376.00 262.00,376.00
             262.00,376.00 262.00,312.00 262.00,312.00
             262.00,312.00 274.00,312.00 274.00,312.00
             274.00,312.00 274.00,301.00 274.00,301.00
             274.00,301.00 262.00,301.00 262.00,301.00
             262.00,301.00 262.00,288.00 262.00,288.00
             262.00,288.00 237.00,288.00 237.00,288.00
             237.00,288.00 237.00,274.00 237.00,274.00
             237.00,274.00 249.00,274.00 249.00,274.00
             249.00,274.00 249.00,251.00 249.00,251.00
             249.00,251.00 237.00,251.00 237.00,251.00
             237.00,251.00 237.00,238.00 237.00,238.00
             237.00,238.00 224.00,238.00 224.00,238.00
             224.00,238.00 224.00,212.00 224.00,212.00
             224.00,212.00 287.00,212.00 287.00,212.00
             287.00,212.00 287.00,201.00 287.00,201.00
             284.17,201.00 276.83,201.69 275.02,199.40
             273.85,197.92 274.01,194.82 274.00,193.00
             273.98,189.77 273.37,177.69 275.02,175.60
             276.59,173.62 280.70,174.00 283.00,174.00
             283.00,174.00 362.00,174.00 362.00,174.00
             362.00,174.00 362.00,162.00 362.00,162.00 Z" />
</svg>
