<?xml version="1.0" encoding="UTF-8" standalone="no"?>
<!DOCTYPE svg PUBLIC "-//W3C//DTD SVG 20010904//EN"
              "http://www.w3.org/TR/2001/REC-SVG-20010904/DTD/svg10.dtd">

<svg xmlns="http://www.w3.org/2000/svg"
     width="11.1111in" height="11.1111in"
     viewBox="0 0 800 800">
  <path id="Selection"
        fill="none" stroke="black" stroke-width="1"
        d="M 287.00,124.00
           C 289.94,124.00 298.13,123.27 299.98,125.60
             301.44,127.45 301.00,134.46 301.00,137.00
             301.00,137.00 313.00,137.00 313.00,137.00
             313.00,137.00 313.00,149.00 313.00,149.00
             313.00,149.00 324.40,150.02 324.40,150.02
             324.40,150.02 326.00,158.00 326.00,158.00
             326.00,158.00 326.00,174.00 326.00,174.00
             326.00,174.00 337.00,174.00 337.00,174.00
             337.00,174.00 337.00,162.00 337.00,162.00
             337.00,162.00 362.00,162.00 362.00,162.00
             362.00,162.00 362.00,149.00 362.00,149.00
             362.00,149.00 438.00,149.00 438.00,149.00
             438.00,149.00 438.00,162.00 438.00,162.00
             438.00,162.00 463.00,162.00 463.00,162.00
             463.00,162.00 463.00,174.00 463.00,174.00
             463.00,174.00 474.00,174.00 474.00,174.00
             474.00,174.00 474.00,156.00 474.00,156.00
             474.00,156.00 475.60,150.02 475.60,150.02
             475.60,150.02 487.00,149.00 487.00,149.00
             487.00,149.00 487.00,137.00 487.00,137.00
             487.00,137.00 499.00,137.00 499.00,137.00
             499.00,134.46 498.56,127.45 500.02,125.60
             501.87,123.27 510.06,124.00 513.00,124.00
             513.00,124.00 513.00,137.00 513.00,137.00
             513.00,137.00 526.00,137.00 526.00,137.00
             526.00,137.00 526.00,149.00 526.00,149.00
             526.00,149.00 538.00,149.00 538.00,149.00
             538.00,149.00 538.00,162.00 538.00,162.00
             538.00,162.00 551.00,162.00 551.00,162.00
             551.00,162.00 551.00,174.00 551.00,174.00
             551.00,174.00 563.00,174.00 563.00,174.00
             563.00,174.00 563.00,187.00 563.00,187.00
             563.00,187.00 576.00,187.00 576.00,187.00
             576.00,187.00 576.00,213.00 576.00,213.00
             576.00,213.00 563.00,213.00 563.00,213.00
             563.00,213.00 563.00,226.00 563.00,226.00
             563.00,226.00 551.00,226.00 551.00,226.00
             551.00,226.00 551.00,312.00 551.00,312.00
             551.00,312.00 563.00,312.00 563.00,312.00
             563.00,312.00 563.00,376.00 563.00,376.00
             563.00,376.00 551.00,376.00 551.00,376.00
             551.00,376.00 551.00,387.00 551.00,387.00
             551.00,387.00 574.00,387.00 574.00,387.00
             574.00,387.00 574.00,332.00 574.00,332.00
             574.06,322.97 575.28,324.00 588.00,324.00
             588.00,324.00 588.00,387.00 588.00,387.00
             588.00,387.00 613.00,387.00 613.00,387.00
             613.00,387.00 613.00,462.00 613.00,462.00
             613.00,462.00 626.00,462.00 626.00,462.00
             626.00,462.00 624.98,474.40 624.98,474.40
             624.98,474.40 618.00,476.00 618.00,476.00
             618.00,476.00 588.00,476.00 588.00,476.00
             588.00,476.00 588.00,487.00 588.00,487.00
             588.00,487.00 638.00,487.00 638.00,487.00
             638.00,487.00 638.00,513.00 638.00,513.00
             638.00,513.00 626.00,513.00 626.00,513.00
             626.00,515.83 626.69,523.17 624.40,524.98
             622.55,526.44 615.54,526.00 613.00,526.00
             613.00,526.00 613.00,551.00 613.00,551.00
             613.00,551.00 601.00,551.00 601.00,551.00
             601.00,551.00 601.00,569.00 601.00,569.00
             601.00,569.00 599.40,574.98 599.40,574.98
             599.40,574.98 588.00,576.00 588.00,576.00
             588.00,576.00 588.00,613.00 588.00,613.00
             588.00,613.00 576.00,613.00 576.00,613.00
             576.00,613.00 576.00,626.00 576.00,626.00
             576.00,626.00 563.00,626.00 563.00,626.00
             563.00,626.00 563.00,638.00 563.00,638.00
             563.00,638.00 526.00,638.00 526.00,638.00
             526.00,638.00 526.00,699.00 526.00,699.00
             526.00,699.00 538.00,699.00 538.00,699.00
             538.00,699.00 538.00,724.00 538.00,724.00
             538.00,724.00 551.00,724.00 551.00,724.00
             551.00,724.00 551.00,763.00 551.00,763.00
             547.99,763.00 541.77,762.42 539.60,764.60
             537.42,766.77 538.00,772.99 538.00,776.00
             538.00,776.00 462.00,776.00 462.00,776.00
             462.00,776.00 462.00,763.00 462.00,763.00
             462.00,763.00 449.00,763.00 449.00,763.00
             449.00,763.00 449.00,751.00 449.00,751.00
             449.00,751.00 437.00,751.00 437.00,751.00
             437.00,751.00 437.00,699.00 437.00,699.00
             437.00,699.00 449.00,699.00 449.00,699.00
             449.00,699.00 449.00,676.00 449.00,676.00
             449.00,676.00 437.00,676.00 437.00,676.00
             437.00,676.00 437.00,663.00 437.00,663.00
             437.00,663.00 424.00,663.00 424.00,663.00
             424.00,663.00 424.00,651.00 424.00,651.00
             424.00,651.00 412.00,651.00 412.00,651.00
             412.00,651.00 412.00,638.00 412.00,638.00
             412.00,638.00 388.00,638.00 388.00,638.00
             388.00,638.00 388.00,651.00 388.00,651.00
             388.00,651.00 376.00,651.00 376.00,651.00
             376.00,651.00 376.00,663.00 376.00,663.00
             372.99,663.00 366.77,662.42 364.60,664.60
             362.42,666.77 363.00,672.99 363.00,676.00
             363.00,676.00 351.00,676.00 351.00,676.00
             351.00,676.00 351.00,699.00 351.00,699.00
             351.00,699.00 363.00,699.00 363.00,699.00
             363.00,699.00 363.00,751.00 363.00,751.00
             363.00,751.00 351.00,751.00 351.00,751.00
             351.00,751.00 351.00,763.00 351.00,763.00
             347.99,763.00 341.77,762.42 339.60,764.60
             337.42,766.77 338.00,772.99 338.00,776.00
             338.00,776.00 262.00,776.00 262.00,776.00
             262.00,776.00 262.00,763.00 262.00,763.00
             262.00,763.00 249.00,763.00 249.00,763.00
             249.00,763.00 249.00,724.00 249.00,724.00
             249.00,724.00 262.00,724.00 262.00,724.00
             262.00,724.00 262.00,699.00 262.00,699.00
             262.00,699.00 274.00,699.00 274.00,699.00
             274.00,699.00 274.00,638.00 274.00,638.00
             274.00,638.00 237.00,638.00 237.00,638.00
             237.00,638.00 237.00,626.00 237.00,626.00
             237.00,626.00 224.00,626.00 224.00,626.00
             224.00,626.00 224.00,613.00 224.00,613.00
             224.00,613.00 212.00,613.00 212.00,613.00
             212.00,613.00 212.00,576.00 212.00,576.00
             212.00,576.00 200.60,574.98 200.60,574.98
             200.60,574.98 199.00,567.00 199.00,567.00
             199.00,567.00 199.00,551.00 199.00,551.00
             199.00,551.00 187.00,551.00 187.00,551.00
             187.00,551.00 187.00,526.00 187.00,526.00
             184.46,526.00 177.45,526.44 175.60,524.98
             173.31,523.17 174.00,515.83 174.00,513.00
             174.00,513.00 162.00,513.00 162.00,513.00
             162.00,513.00 162.00,487.00 162.00,487.00
             162.00,487.00 212.00,487.00 212.00,487.00
             212.00,487.00 212.00,476.00 212.00,476.00
             212.00,476.00 183.00,476.00 183.00,476.00
             183.00,476.00 175.02,474.40 175.02,474.40
             175.02,474.40 174.00,462.00 174.00,462.00
             174.00,462.00 187.00,462.00 187.00,462.00
             187.00,462.00 187.00,449.00 187.00,449.00
             187.00,449.00 199.00,449.00 199.00,449.00
             199.00,449.00 199.00,437.00 199.00,437.00
             199.00,437.00 212.00,437.00 212.00,437.00
             212.00,437.00 212.00,426.00 212.00,426.00
             212.00,426.00 187.00,426.00 187.00,426.00
             187.00,426.00 187.00,387.00 187.00,387.00
             187.00,387.00 249.00,387.00 249.00,387.00
             249.00,387.00 249.00,376.00 249.00,376.00
             249.00,376.00 237.00,376.00 237.00,376.00
             237.00,376.00 237.00,312.00 237.00,312.00
             237.00,312.00 249.00,312.00 249.00,312.00
             249.00,312.00 249.00,226.00 249.00,226.00
             249.00,226.00 237.00,226.00 237.00,226.00
             237.00,226.00 237.00,213.00 237.00,213.00
             237.00,213.00 224.00,213.00 224.00,213.00
             224.00,213.00 224.00,187.00 224.00,187.00
             224.00,187.00 237.00,187.00 237.00,187.00
             237.00,187.00 237.00,174.00 237.00,174.00
             237.00,174.00 249.00,174.00 249.00,174.00
             249.00,174.00 249.00,162.00 249.00,162.00
             249.00,162.00 262.00,162.00 262.00,162.00
             262.00,162.00 262.00,149.00 262.00,149.00
             262.00,149.00 274.00,149.00 274.00,149.00
             274.00,149.00 274.00,137.00 274.00,137.00
             274.00,137.00 287.00,137.00 287.00,137.00
             287.00,137.00 287.00,124.00 287.00,124.00 Z" />
</svg>
